# xmcd
#
# Track frame offsets:
#	150
#	17456
#	41400
#	67144
#	82810
#	104889
#	121427
#	138340
#	156566
#	174076
#	194551
#	212551
#	232384
#	249269
#	256560
#
# Disc length: 3675 seconds
# Revision: 0
# Processed by: cddbd v1.5.2PL0 Copyright (c) Steve Scherf et al.
# Submitted via: dBpowerAMP V12.0
#
DISCID=ce0e590f
DTITLE=Rj Knapp and Honey Robin - Don't Blame the Dynamite (If You Can't Light the Fuse)
DYEAR=2012
DGENRE=Blues Rock
TTITLE0=I Call It the Bluz
TTITLE1=All Cried Out
TTITLE2=If the Bluz Was Money
TTITLE3=SOMFB
TTITLE4=Hole in My Heart
TTITLE5=Don't Let Your Mind Be Writing Checks
TTITLE6=Bus Stop Bluz
TTITLE7=Kirkland Krawl
TTITLE8=Moan Dem Bluz
TTITLE9=No Tell Motel
TTITLE10=Ready for Times
TTITLE11=Don't Walk On Me
TTITLE12=Can't Stand the Heat
TTITLE13=Don't Blame the Dynamite
TTITLE14=Concrete Crawl (Bonus Track)
EXTD=
EXTT0=
EXTT1=
EXTT2=
EXTT3=
EXTT4=
EXTT5=
EXTT6=
EXTT7=
EXTT8=
EXTT9=
EXTT10=
EXTT11=
EXTT12=
EXTT13=
EXTT14=
PLAYORDER=
